<?xml version="1.0" encoding="UTF-8" standalone="no"?>
<!-- Generator: Adobe Illustrator 14.0.0, SVG Export Plug-In . SVG Version: 6.00 Build 43363)  -->

<svg
   version="1.2"
   x="0px"
   y="0px"
   width="50.267761"
   height="65.2155"
   viewBox="0 0 50.267759 65.215499"
   xml:space="preserve"
   id="svg10880"
   sodipodi:docname="DHT11_temperature_and_humidity_breadboard.svg"
   inkscape:version="1.2.2 (732a01da63, 2022-12-09)"
   xmlns:inkscape="http://www.inkscape.org/namespaces/inkscape"
   xmlns:sodipodi="http://sodipodi.sourceforge.net/DTD/sodipodi-0.dtd"
   xmlns="http://www.w3.org/2000/svg"
   xmlns:svg="http://www.w3.org/2000/svg"><defs
   id="defs10884" /><sodipodi:namedview
   id="namedview10882"
   pagecolor="#ffffff"
   bordercolor="#000000"
   borderopacity="0.25"
   inkscape:showpageshadow="2"
   inkscape:pageopacity="0.0"
   inkscape:pagecheckerboard="0"
   inkscape:deskcolor="#d1d1d1"
   showgrid="false"
   inkscape:zoom="9.422104"
   inkscape:cx="37.99576"
   inkscape:cy="42.612563"
   inkscape:window-width="1920"
   inkscape:window-height="1129"
   inkscape:window-x="-8"
   inkscape:window-y="-8"
   inkscape:window-maximized="1"
   inkscape:current-layer="svg10880" />


<path
   id="rect13481"
   style="fill:#373737;fill-opacity:1;stroke-width:49.1766;stroke-linecap:square;stroke-linejoin:round;paint-order:stroke fill markers"
   d="M 0,6.4019586 V 58.496871 H 50.267763 V 6.4019586 Z M 6.285101,13.087571 A 2.4181956,2.4181956 0 0 1 8.701254,15.503719 2.4181956,2.4181956 0 0 1 6.285101,17.92248 2.4181956,2.4181956 0 0 1 3.866354,15.503719 2.4181956,2.4181956 0 0 1 6.285101,13.087571 Z m 37.977647,0 a 2.4181956,2.4181956 0 0 1 2.418762,2.416148 2.4181956,2.4181956 0 0 1 -2.418762,2.418761 2.4181956,2.4181956 0 0 1 -2.416134,-2.418761 2.4181956,2.4181956 0 0 1 2.416134,-2.416148 z" /><rect
   style="fill:#000000;fill-opacity:1;stroke-width:49.1766;stroke-linecap:square;stroke-linejoin:round;paint-order:stroke fill markers"
   id="rect13100"
   width="4.2814155"
   height="4.2814155"
   x="13.006877"
   y="52.907871" /><rect
   style="fill:#8c8c8c;fill-opacity:1;stroke-width:54.6504;stroke-linecap:square;stroke-linejoin:round;paint-order:stroke fill markers"
   id="rect12112"
   width="2.2618799"
   height="10.874429"
   x="14.057026"
   y="54.341057" /><rect
   style="fill:#00b9c8;fill-opacity:1;stroke-width:45.6236;stroke-linecap:square;stroke-linejoin:round;paint-order:stroke fill markers"
   id="rect17493"
   width="36.557446"
   height="43.954247"
   x="6.4263802"
   y="0" /><rect
   style="fill:#cccccc;fill-opacity:1;stroke-width:45.6236;stroke-linecap:square;stroke-linejoin:round;paint-order:stroke fill markers"
   id="rect16888"
   width="28.449362"
   height="38.016148"
   x="11.68952"
   y="4.4688702" /><path
   id="rect13483"
   style="fill:#00ecff;fill-opacity:1;stroke-width:45.6236;stroke-linecap:square;stroke-linejoin:round;paint-order:stroke fill markers"
   d="M 6.429756,0.100586 V 13.173187 H 8.955853 V 17.89798 H 6.429756 v 2.845687 h 2.526097 v 4.722541 H 6.429756 v 10.416185 h 2.526097 v 4.722541 H 6.429756 v 3.154365 H 42.986 V 40.604934 H 40.16934 V 35.882393 H 42.986 V 25.466208 H 40.16934 V 20.743667 H 42.986 V 17.89798 H 40.16934 V 13.173187 H 42.986 V 0.100586 H 37.028097 V 2.759268 H 31.538776 V 0.100586 H 27.593897 V 2.759268 H 22.104578 V 0.100586 H 18.159697 V 2.759268 H 12.672991 V 0.100586 Z m 6.243235,5.5043578 h 5.486706 v 4.7225412 h -5.486706 z m 9.431587,0 h 5.489319 v 4.7225412 h -5.489319 z m 9.434198,0 h 5.486706 V 10.327485 H 31.538776 Z M 12.672991,13.173187 h 5.486706 v 4.724793 h -5.486706 z m 9.431587,0 h 5.489319 v 4.724793 h -5.489319 z m 9.434198,0 h 5.489321 v 4.724793 h -5.489321 z m -18.865785,7.57048 h 5.486706 v 4.722541 h -5.486706 z m 9.431587,0 h 5.489319 v 4.722541 h -5.489319 z m 9.434198,0 h 5.489321 v 4.722541 h -5.489321 z m -18.865785,7.568244 h 5.486706 v 4.724779 h -5.486706 z m 9.431587,0 h 5.489319 v 4.724779 h -5.489319 z m 9.434198,0 h 5.489321 v 4.724779 h -5.489321 z m -18.865785,7.570482 h 5.486706 v 4.722541 h -5.486706 z m 9.431587,0 h 5.489319 v 4.722541 h -5.489319 z m 9.434198,0 h 5.489321 v 4.722541 h -5.489321 z" /><rect
   style="fill:#000000;fill-opacity:1;stroke-width:49.1766;stroke-linecap:square;stroke-linejoin:round;paint-order:stroke fill markers"
   id="rect13100-2"
   width="4.2814155"
   height="4.2814155"
   x="22.67766"
   y="52.907871" /><rect
   style="fill:#8c8c8c;fill-opacity:1;stroke-width:54.6504;stroke-linecap:square;stroke-linejoin:round;paint-order:stroke fill markers"
   id="rect12112-8"
   width="2.2618799"
   height="10.874429"
   x="23.727808"
   y="54.341057" /><g
   id="g17439"
   transform="matrix(1.3402642,0,0,1.3402642,-381.9785,-503.88008)"><rect
     style="fill:#000000;fill-opacity:1;stroke-width:36.6917;stroke-linecap:square;stroke-linejoin:round;paint-order:stroke fill markers"
     id="rect13100-2-6"
     width="3.1944566"
     height="3.1944566"
     x="308.94913"
     y="415.43149" /><rect
     style="fill:#8c8c8c;fill-opacity:1;stroke-width:40.7758;stroke-linecap:square;stroke-linejoin:round;paint-order:stroke fill markers"
     id="rect12112-8-9"
     width="1.6876374"
     height="8.1136456"
     x="309.73267"
     y="416.50082" /></g><circle
   style="fill:#8c8c8c;fill-opacity:1;stroke-width:49.1766;stroke-linecap:square;stroke-linejoin:round;paint-order:stroke fill markers"
   id="path19500"
   cx="12.827484"
   cy="48.648418"
   r="2.1337018" /><circle
   style="fill:#8c8c8c;fill-opacity:1;stroke-width:49.1766;stroke-linecap:square;stroke-linejoin:round;paint-order:stroke fill markers"
   id="path19500-2"
   cx="21.037748"
   cy="48.648418"
   r="2.1337018" /><circle
   style="fill:#8c8c8c;fill-opacity:1;stroke-width:49.1766;stroke-linecap:square;stroke-linejoin:round;paint-order:stroke fill markers"
   id="path19500-5"
   cx="29.248053"
   cy="48.648418"
   r="2.1337018" /><circle
   style="fill:#8c8c8c;fill-opacity:1;stroke-width:49.1766;stroke-linecap:square;stroke-linejoin:round;paint-order:stroke fill markers"
   id="path19500-54"
   cx="37.458317"
   cy="48.648418"
   r="2.1337018" /><rect
   style="fill:#8c8c8c;fill-opacity:1;stroke-width:49.1766;stroke-linecap:square;stroke-linejoin:round;paint-order:stroke fill markers"
   id="rect19671"
   width="3.5561702"
   height="7.9658213"
   x="4.0599384"
   y="46.181393" /><rect
   style="fill:#333333;fill-opacity:1;stroke-width:51.6695;stroke-linecap:square;stroke-linejoin:round;paint-order:stroke fill markers"
   id="rect19673"
   width="3.8976176"
   height="4.4759736"
   x="3.9042673"
   y="48.039513" /></svg>
