<?xml version="1.0" encoding="UTF-8" standalone="no"?>
<!-- Created with Inkscape (http://www.inkscape.org/) -->

<svg
   width="14.470432mm"
   height="23.222767mm"
   viewBox="0 0 14.470432 23.222767"
   version="1.1"
   id="svg5"
   inkscape:version="1.1.1 (3bf5ae0d25, 2021-09-20)"
   sodipodi:docname="04 push button_breadboard.svg"
   xmlns:inkscape="http://www.inkscape.org/namespaces/inkscape"
   xmlns:sodipodi="http://sodipodi.sourceforge.net/DTD/sodipodi-0.dtd"
   xmlns="http://www.w3.org/2000/svg"
   xmlns:svg="http://www.w3.org/2000/svg">
  <sodipodi:namedview
     id="namedview7"
     pagecolor="#ffffff"
     bordercolor="#666666"
     borderopacity="1.0"
     inkscape:pageshadow="2"
     inkscape:pageopacity="0.0"
     inkscape:pagecheckerboard="0"
     inkscape:document-units="mm"
     showgrid="false"
     inkscape:zoom="2.3233446"
     inkscape:cx="4.3041399"
     inkscape:cy="26.900874"
     inkscape:window-width="1600"
     inkscape:window-height="837"
     inkscape:window-x="-8"
     inkscape:window-y="-8"
     inkscape:window-maximized="1"
     inkscape:current-layer="layer1" />
  <defs
     id="defs2">
    <rect
       x="421.52289"
       y="242.56589"
       width="141.82648"
       height="140.00038"
       id="rect24334" />
    <rect
       x="421.52289"
       y="242.56589"
       width="141.82648"
       height="140.00038"
       id="rect24334-0" />
    <rect
       x="421.52289"
       y="242.56589"
       width="141.82648"
       height="140.00038"
       id="rect24334-0-0" />
  </defs>
  <g
     inkscape:label="Layer 1"
     inkscape:groupmode="layer"
     id="layer1"
     transform="translate(-112.08515,-73.887996)">
    <path
       id="rect858"
       style="fill:#2b2b2b;fill-opacity:1;stroke:none;stroke-width:5.507"
       d="m 423.62891,279.26172 v 76.27344 h 54.6914 v -76.27344 z m 8.61523,3.64453 a 3.7964729,3.7964729 0 0 1 3.79492,3.79687 3.7964729,3.7964729 0 0 1 -3.79492,3.79688 3.7964729,3.7964729 0 0 1 -3.79687,-3.79688 3.7964729,3.7964729 0 0 1 3.79687,-3.79687 z m 37.49024,0 a 3.7964729,3.7964729 0 0 1 3.79492,3.79687 3.7964729,3.7964729 0 0 1 -3.79492,3.79688 3.7964729,3.7964729 0 0 1 -3.79688,-3.79688 3.7964729,3.7964729 0 0 1 3.79688,-3.79687 z m -41.83204,14.28516 a 3.6902271,3.6902271 0 0 1 3.68946,3.68945 3.6902271,3.6902271 0 0 1 -3.68946,3.69141 3.6902271,3.6902271 0 0 1 -3.68945,-3.69141 3.6902271,3.6902271 0 0 1 3.68945,-3.68945 z m 45.17969,0 a 3.6902271,3.6902271 0 0 1 3.68945,3.68945 3.6902271,3.6902271 0 0 1 -3.68945,3.69141 3.6902271,3.6902271 0 0 1 -3.68945,-3.69141 3.6902271,3.6902271 0 0 1 3.68945,-3.68945 z m -39.46094,10.59765 a 3.6902271,3.6902271 0 0 1 3.68946,3.68946 3.6902271,3.6902271 0 0 1 -3.68946,3.6914 3.6902271,3.6902271 0 0 1 -3.6914,-3.6914 3.6902271,3.6902271 0 0 1 3.6914,-3.68946 z m 33.74219,0 a 3.6902271,3.6902271 0 0 1 3.69141,3.68946 3.6902271,3.6902271 0 0 1 -3.69141,3.6914 3.6902271,3.6902271 0 0 1 -3.68945,-3.6914 3.6902271,3.6902271 0 0 1 3.68945,-3.68946 z m -36.70703,17.89649 a 3.7964729,3.7964729 0 0 1 3.79492,3.79687 3.7964729,3.7964729 0 0 1 -3.79492,3.79688 3.7964729,3.7964729 0 0 1 -3.79687,-3.79688 3.7964729,3.7964729 0 0 1 3.79687,-3.79687 z m 41.18555,0 a 3.7964729,3.7964729 0 0 1 3.79687,3.79687 3.7964729,3.7964729 0 0 1 -3.79687,3.79688 3.7964729,3.7964729 0 0 1 -3.79688,-3.79688 3.7964729,3.7964729 0 0 1 3.79688,-3.79687 z"
       transform="scale(0.26458333)" />
    <rect
       style="fill:none;fill-opacity:1;stroke:#ffffff;stroke-width:0.339981;stroke-miterlimit:4;stroke-dasharray:none;stroke-opacity:1"
       id="rect1684"
       width="11.18552"
       height="3.1288171"
       x="113.89412"
       y="89.474792" />
    <rect
       style="fill:none;fill-opacity:1;stroke:#ffffff;stroke-width:0.186575;stroke-miterlimit:4;stroke-dasharray:none;stroke-opacity:1"
       id="rect1684-0"
       width="4.4807329"
       height="2.3522797"
       x="117.20579"
       y="85.909531" />
    <rect
       style="fill:#000000;fill-opacity:1;stroke:#ffffff;stroke-width:0.339981;stroke-miterlimit:4;stroke-dasharray:none;stroke-opacity:1"
       id="rect2008"
       width="1.9555105"
       height="2.033731"
       x="115.14565"
       y="89.984047" />
    <rect
       style="fill:#000000;fill-opacity:1;stroke:#ffffff;stroke-width:0.339981;stroke-miterlimit:4;stroke-dasharray:none;stroke-opacity:1"
       id="rect2008-2"
       width="1.9555105"
       height="2.033731"
       x="118.58176"
       y="89.984047" />
    <rect
       style="fill:#000000;fill-opacity:1;stroke:#ffffff;stroke-width:0.339981;stroke-miterlimit:4;stroke-dasharray:none;stroke-opacity:1"
       id="rect2008-5"
       width="1.9555105"
       height="2.033731"
       x="122.01788"
       y="89.984047" />
    <rect
       style="opacity:1;fill:#8c8c8c;fill-opacity:1;stroke:none;stroke-width:0.25766;stroke-miterlimit:4;stroke-dasharray:none;stroke-opacity:1"
       id="rect2788"
       width="0.76200002"
       height="6.2064805"
       x="115.80999"
       y="90.904282" />
    <rect
       style="fill:#8c8c8c;fill-opacity:1;stroke:none;stroke-width:0.25766;stroke-miterlimit:4;stroke-dasharray:none;stroke-opacity:1"
       id="rect2788-8"
       width="0.76200002"
       height="6.2064805"
       x="119.25031"
       y="90.904282" />
    <rect
       style="fill:#8c8c8c;fill-opacity:1;stroke:none;stroke-width:0.25766;stroke-miterlimit:4;stroke-dasharray:none;stroke-opacity:1"
       id="rect2788-4"
       width="0.76200002"
       height="6.2064805"
       x="122.60979"
       y="90.904282" />
    <rect
       style="opacity:1;fill:#8c8c8c;fill-opacity:1;stroke:none;stroke-width:0.661001;stroke-miterlimit:4;stroke-dasharray:none;stroke-opacity:1"
       id="rect3284"
       width="3.8652277"
       height="1.3689349"
       x="117.56734"
       y="86.369438" />
    <rect
       style="opacity:1;fill:#280b0b;fill-opacity:1;stroke:none;stroke-width:0.661001;stroke-miterlimit:4;stroke-dasharray:none;stroke-opacity:1"
       id="rect3286"
       width="1.8520883"
       height="1.6507744"
       x="118.61418"
       y="86.28891" />
    <g
       id="g29060"
       transform="matrix(0.8599604,0,0,0.8599604,16.448808,11.976936)">
      <rect
         style="opacity:1;fill:#6f6666;fill-opacity:1;stroke:none;stroke-width:0.692515;stroke-miterlimit:4;stroke-dasharray:none;stroke-opacity:1"
         id="rect5781"
         width="3.139488"
         height="9.7584143"
         x="115.47469"
         y="75.360336"
         ry="1.7229874" />
      <rect
         style="fill:#6f6666;fill-opacity:1;stroke:none;stroke-width:0.692515;stroke-miterlimit:4;stroke-dasharray:none;stroke-opacity:1"
         id="rect5781-8"
         width="3.139488"
         height="9.7584143"
         x="120.45307"
         y="75.360336"
         ry="1.7229874" />
      <rect
         style="opacity:1;fill:#8c8c8c;fill-opacity:1;stroke:none;stroke-width:0.651636;stroke-miterlimit:4;stroke-dasharray:none;stroke-opacity:1"
         id="rect3310"
         width="8.0285654"
         height="6.9467025"
         x="115.47469"
         y="76.869247" />
      <circle
         style="opacity:1;fill:#000000;fill-opacity:1;stroke:none;stroke-width:0.661001;stroke-miterlimit:4;stroke-dasharray:none;stroke-opacity:1"
         id="path5501"
         cx="119.74729"
         cy="80.342598"
         r="1.4897233" />
      <circle
         style="opacity:1;fill:#000000;fill-opacity:1;stroke:none;stroke-width:0.661001;stroke-miterlimit:4;stroke-dasharray:none;stroke-opacity:1"
         id="path5629"
         cx="116.09392"
         cy="77.403061"
         r="0.21352568" />
      <circle
         style="fill:#000000;fill-opacity:1;stroke:none;stroke-width:0.661001;stroke-miterlimit:4;stroke-dasharray:none;stroke-opacity:1"
         id="path5629-8"
         cx="116.09392"
         cy="83.360428"
         r="0.21352568" />
      <circle
         style="fill:#000000;fill-opacity:1;stroke:none;stroke-width:0.661001;stroke-miterlimit:4;stroke-dasharray:none;stroke-opacity:1"
         id="path5629-1"
         cx="123.03351"
         cy="83.360428"
         r="0.21352568" />
      <circle
         style="fill:#000000;fill-opacity:1;stroke:none;stroke-width:0.661001;stroke-miterlimit:4;stroke-dasharray:none;stroke-opacity:1"
         id="path5629-6"
         cx="123.03351"
         cy="77.403061"
         r="0.21352568" />
    </g>
    <text
       xml:space="preserve"
       transform="matrix(0.02584903,0,0,0.02651696,111.07593,80.13727)"
       id="text24332"
       style="font-style:normal;font-weight:normal;font-size:40px;line-height:1.25;font-family:sans-serif;white-space:pre;shape-inside:url(#rect24334);fill:#ffffff;fill-opacity:1;stroke:none"><tspan
         x="421.52344"
         y="279.05962"
         id="tspan29977">R1</tspan></text>
    <text
       xml:space="preserve"
       transform="matrix(0.02584903,0,0,0.02651696,114.57142,83.89207)"
       id="text24332-2"
       style="font-style:normal;font-weight:normal;font-size:40px;line-height:1.25;font-family:sans-serif;white-space:pre;shape-inside:url(#rect24334-0);fill:#ffffff;fill-opacity:1;stroke:none"><tspan
         x="421.52344"
         y="279.05962"
         id="tspan29979">-</tspan></text>
    <text
       xml:space="preserve"
       transform="matrix(0.02584903,0,0,0.02651696,101.86706,83.95649)"
       id="text24332-2-3"
       style="font-style:normal;font-weight:normal;font-size:40px;line-height:1.25;font-family:sans-serif;white-space:pre;shape-inside:url(#rect24334-0-0);fill:#ffffff;fill-opacity:1;stroke:none"><tspan
         x="421.52344"
         y="279.05962"
         id="tspan29981">S</tspan></text>
    <path
       id="path29106"
       style="fill:none;fill-opacity:1;stroke:#8c8c8c;stroke-width:1;stroke-miterlimit:4;stroke-dasharray:none;stroke-opacity:1"
       d="m 114.36459,74.852278 a 1.0044834,1.0044834 0 0 0 -1.00458,1.004588 1.0044834,1.0044834 0 0 0 1.00458,1.004591 1.0044834,1.0044834 0 0 0 1.00408,-1.004591 1.0044834,1.0044834 0 0 0 -1.00408,-1.004588 z m 9.9193,0 a 1.0044834,1.0044834 0 0 0 -1.00459,1.004588 1.0044834,1.0044834 0 0 0 1.00459,1.004591 1.0044834,1.0044834 0 0 0 1.00407,-1.004591 1.0044834,1.0044834 0 0 0 -1.00407,-1.004588 z m -10.33943,11.318689 a 1.0044834,1.0044834 0 0 0 -1.00458,1.004589 1.0044834,1.0044834 0 0 0 1.00458,1.004591 1.0044834,1.0044834 0 0 0 1.00408,-1.004591 1.0044834,1.0044834 0 0 0 -1.00408,-1.004589 z m 10.89701,0 a 1.0044834,1.0044834 0 0 0 -1.00459,1.004589 1.0044834,1.0044834 0 0 0 1.00459,1.004591 1.0044834,1.0044834 0 0 0 1.00459,-1.004591 1.0044834,1.0044834 0 0 0 -1.00459,-1.004589 z" />
  </g>
</svg>
