<?xml version="1.0" encoding="UTF-8" standalone="no"?>
<!-- Created with Inkscape (http://www.inkscape.org/) -->

<svg
   width="0.41884133in"
   height="0.71673983in"
   viewBox="0 0 10.63857 18.205192"
   version="1.1"
   id="svg5"
   inkscape:version="1.2.2 (732a01da63, 2022-12-09)"
   sodipodi:docname="05 tilt sensor_breadboard.svg"
   xmlns:inkscape="http://www.inkscape.org/namespaces/inkscape"
   xmlns:sodipodi="http://sodipodi.sourceforge.net/DTD/sodipodi-0.dtd"
   xmlns="http://www.w3.org/2000/svg"
   xmlns:svg="http://www.w3.org/2000/svg">
  <sodipodi:namedview
     id="namedview7"
     pagecolor="#ffffff"
     bordercolor="#666666"
     borderopacity="1.0"
     inkscape:pageshadow="2"
     inkscape:pageopacity="0.0"
     inkscape:pagecheckerboard="0"
     inkscape:document-units="mm"
     showgrid="false"
     inkscape:zoom="9.2933784"
     inkscape:cx="14.956886"
     inkscape:cy="25.986244"
     inkscape:window-width="1920"
     inkscape:window-height="1129"
     inkscape:window-x="-8"
     inkscape:window-y="-8"
     inkscape:window-maximized="1"
     inkscape:current-layer="layer1"
     inkscape:showpageshadow="2"
     inkscape:deskcolor="#d1d1d1" />
  <defs
     id="defs2">
    <rect
       x="421.52289"
       y="242.56589"
       width="141.82648"
       height="140.00038"
       id="rect24334" />
    <rect
       x="421.52289"
       y="242.56589"
       width="141.82648"
       height="140.00038"
       id="rect24334-0" />
    <rect
       x="421.52289"
       y="242.56589"
       width="141.82648"
       height="140.00038"
       id="rect24334-0-0" />
  </defs>
  <g
     inkscape:label="Layer 1"
     inkscape:groupmode="layer"
     id="layer1"
     transform="translate(-112.08515,-78.905571)">
    <path
       id="rect858"
       style="fill:#2b2b2b;fill-opacity:1;stroke:none;stroke-width:1.07122"
       d="M 112.08515,80.037535 V 94.87424 h 10.63857 V 80.037535 Z m 1.67583,0.708934 a 0.73848968,0.73848968 0 0 1 0.73819,0.738567 0.73848968,0.73848968 0 0 1 -0.73819,0.738569 0.73848968,0.73848968 0 0 1 -0.73857,-0.738569 0.73848968,0.73848968 0 0 1 0.73857,-0.738567 z m 7.2926,0 a 0.73848968,0.73848968 0 0 1 0.73819,0.738567 0.73848968,0.73848968 0 0 1 -0.73819,0.738569 0.73848968,0.73848968 0 0 1 -0.73857,-0.738569 0.73848968,0.73848968 0 0 1 0.73857,-0.738567 z m -8.13717,2.778748 a 0.71782275,0.71782275 0 0 1 0.71768,0.717672 0.71782275,0.71782275 0 0 1 -0.71768,0.718053 0.71782275,0.71782275 0 0 1 -0.71767,-0.718053 0.71782275,0.71782275 0 0 1 0.71767,-0.717672 z m 8.78836,0 a 0.71782275,0.71782275 0 0 1 0.71767,0.717672 0.71782275,0.71782275 0 0 1 -0.71767,0.718053 0.71782275,0.71782275 0 0 1 -0.71768,-0.718053 0.71782275,0.71782275 0 0 1 0.71768,-0.717672 z m -7.67594,2.061454 a 0.71782275,0.71782275 0 0 1 0.71767,0.717674 0.71782275,0.71782275 0 0 1 -0.71767,0.718051 0.71782275,0.71782275 0 0 1 -0.71806,-0.718051 0.71782275,0.71782275 0 0 1 0.71806,-0.717674 z m 6.56352,0 a 0.71782275,0.71782275 0 0 1 0.71806,0.717674 0.71782275,0.71782275 0 0 1 -0.71806,0.718051 0.71782275,0.71782275 0 0 1 -0.71767,-0.718051 0.71782275,0.71782275 0 0 1 0.71767,-0.717674 z m -7.14025,3.481225 a 0.73848968,0.73848968 0 0 1 0.73819,0.738567 0.73848968,0.73848968 0 0 1 -0.73819,0.738568 0.73848968,0.73848968 0 0 1 -0.73856,-0.738568 0.73848968,0.73848968 0 0 1 0.73856,-0.738567 z m 8.01142,0 a 0.73848968,0.73848968 0 0 1 0.73856,0.738567 0.73848968,0.73848968 0 0 1 -0.73856,0.738568 0.73848968,0.73848968 0 0 1 -0.73857,-0.738568 0.73848968,0.73848968 0 0 1 0.73857,-0.738567 z" />
    <rect
       style="fill:none;fill-opacity:1;stroke:#ffffff;stroke-width:0.249952;stroke-miterlimit:4;stroke-dasharray:none;stroke-opacity:1"
       id="rect1684"
       width="8.2235212"
       height="2.3002861"
       x="113.41509"
       y="91.496849" />
    <rect
       style="fill:none;fill-opacity:1;stroke:#ffffff;stroke-width:0.137169;stroke-miterlimit:4;stroke-dasharray:none;stroke-opacity:1"
       id="rect1684-0"
       width="3.2942057"
       height="1.7293807"
       x="115.84981"
       y="88.875687" />
    <rect
       style="fill:#000000;fill-opacity:1;stroke:#ffffff;stroke-width:0.249952;stroke-miterlimit:4;stroke-dasharray:none;stroke-opacity:1"
       id="rect2008"
       width="1.4376786"
       height="1.4951857"
       x="114.33521"
       y="91.871246" />
    <rect
       style="fill:#000000;fill-opacity:1;stroke:#ffffff;stroke-width:0.249952;stroke-miterlimit:4;stroke-dasharray:none;stroke-opacity:1"
       id="rect2008-2"
       width="1.4376786"
       height="1.4951857"
       x="116.86141"
       y="91.871246" />
    <rect
       style="fill:#000000;fill-opacity:1;stroke:#ffffff;stroke-width:0.249952;stroke-miterlimit:4;stroke-dasharray:none;stroke-opacity:1"
       id="rect2008-5"
       width="1.4376786"
       height="1.4951857"
       x="119.38763"
       y="91.871246" />
    <rect
       style="fill:#8c8c8c;fill-opacity:1;stroke:none;stroke-width:0.18943;stroke-miterlimit:4;stroke-dasharray:none;stroke-opacity:1"
       id="rect2788"
       width="0.56021744"
       height="4.562964"
       x="114.82363"
       y="92.547798" />
    <rect
       style="fill:#8c8c8c;fill-opacity:1;stroke:none;stroke-width:0.18943;stroke-miterlimit:4;stroke-dasharray:none;stroke-opacity:1"
       id="rect2788-8"
       width="0.56021744"
       height="4.562964"
       x="117.35293"
       y="92.547798" />
    <rect
       style="fill:#8c8c8c;fill-opacity:1;stroke:none;stroke-width:0.18943;stroke-miterlimit:4;stroke-dasharray:none;stroke-opacity:1"
       id="rect2788-4"
       width="0.56021744"
       height="4.562964"
       x="119.82279"
       y="92.547798" />
    <rect
       style="fill:#8c8c8c;fill-opacity:1;stroke:none;stroke-width:0.485964;stroke-miterlimit:4;stroke-dasharray:none;stroke-opacity:1"
       id="rect3284"
       width="2.8416903"
       height="1.0064321"
       x="116.11562"
       y="89.213814" />
    <rect
       style="fill:#280b0b;fill-opacity:1;stroke:none;stroke-width:0.485964;stroke-miterlimit:4;stroke-dasharray:none;stroke-opacity:1"
       id="rect3286"
       width="1.3616433"
       height="1.2136385"
       x="116.88525"
       y="89.15461" />
    <text
       xml:space="preserve"
       transform="matrix(0.01900404,0,0,0.0194951,111.34318,84.631961)"
       id="text24332"
       style="font-style:normal;font-variant:normal;font-weight:normal;font-stretch:normal;font-size:40px;line-height:1.25;font-family:OCRA;-inkscape-font-specification:'OCRA, Normal';font-variant-ligatures:normal;font-variant-caps:normal;font-variant-numeric:normal;font-variant-east-asian:normal;white-space:pre;shape-inside:url(#rect24334);fill:#ffffff;fill-opacity:1;stroke:none"><tspan
         x="421.52344"
         y="279.56641"
         id="tspan3146">R1</tspan></text>
    <text
       xml:space="preserve"
       transform="matrix(0.01900404,0,0,0.0194951,113.91304,87.392466)"
       id="text24332-2"
       style="font-style:normal;font-variant:normal;font-weight:normal;font-stretch:normal;font-size:40px;line-height:1.25;font-family:OCRA;-inkscape-font-specification:'OCRA, Normal';font-variant-ligatures:normal;font-variant-caps:normal;font-variant-numeric:normal;font-variant-east-asian:normal;white-space:pre;shape-inside:url(#rect24334-0);fill:#ffffff;fill-opacity:1;stroke:none"><tspan
         x="421.52344"
         y="279.56641"
         id="tspan3148">-</tspan></text>
    <text
       xml:space="preserve"
       transform="matrix(0.01900404,0,0,0.0194951,104.57288,87.439827)"
       id="text24332-2-3"
       style="font-style:normal;font-variant:normal;font-weight:normal;font-stretch:normal;font-size:40px;line-height:1.25;font-family:OCRA;-inkscape-font-specification:'OCRA, Normal';font-variant-ligatures:normal;font-variant-caps:normal;font-variant-numeric:normal;font-variant-east-asian:normal;white-space:pre;shape-inside:url(#rect24334-0-0);fill:#ffffff;fill-opacity:1;stroke:none"><tspan
         x="421.52344"
         y="279.56641"
         id="tspan3150">S</tspan></text>
    <path
       id="path29106"
       style="fill:none;fill-opacity:1;stroke:#8c8c8c;stroke-width:0.735193;stroke-miterlimit:4;stroke-dasharray:none;stroke-opacity:1"
       d="m 113.76098,80.746469 a 0.73848966,0.73848966 0 0 0 -0.73856,0.738567 0.73848966,0.73848966 0 0 0 0.73856,0.738569 0.73848966,0.73848966 0 0 0 0.73819,-0.738569 0.73848966,0.73848966 0 0 0 -0.73819,-0.738567 z m 7.2926,0 a 0.73848966,0.73848966 0 0 0 -0.73856,0.738567 0.73848966,0.73848966 0 0 0 0.73856,0.738569 0.73848966,0.73848966 0 0 0 0.73819,-0.738569 0.73848966,0.73848966 0 0 0 -0.73819,-0.738567 z m -7.60148,8.321427 a 0.73848966,0.73848966 0 0 0 -0.73856,0.738567 0.73848966,0.73848966 0 0 0 0.73856,0.738569 0.73848966,0.73848966 0 0 0 0.7382,-0.738569 0.73848966,0.73848966 0 0 0 -0.7382,-0.738567 z m 8.01141,0 a 0.73848966,0.73848966 0 0 0 -0.73857,0.738567 0.73848966,0.73848966 0 0 0 0.73857,0.738569 0.73848966,0.73848966 0 0 0 0.73857,-0.738569 0.73848966,0.73848966 0 0 0 -0.73857,-0.738567 z" />
    <path
       style="fill:#000000;stroke:#8c8c8c;stroke-width:0.529167;stroke-linecap:square;stroke-opacity:1;paint-order:stroke fill markers"
       d="m 116.63485,86.560108 -0.20132,3.18076"
       id="path1687" />
    <path
       style="fill:none;stroke:#8c8c8c;stroke-width:0.529167;stroke-linecap:square;stroke-opacity:1;paint-order:stroke fill markers"
       d="m 117.88299,86.358794 0.66291,3.133171"
       id="path1689"
       sodipodi:nodetypes="cc" />
    <rect
       style="fill:#000000;stroke-width:0.529167;stroke-linecap:square;paint-order:stroke fill markers"
       id="rect1631"
       width="2.5365558"
       height="7.7304554"
       x="129.65297"
       y="56.382061"
       transform="rotate(10.421946)" />
  </g>
</svg>
