<?xml version="1.0" encoding="UTF-8" standalone="no"?>
<!-- Generator: Adobe Illustrator 14.0.0, SVG Export Plug-In . SVG Version: 6.00 Build 43363)  -->

<svg
   version="1.2"
   x="0px"
   y="0px"
   width="95.376823"
   height="67.438042"
   viewBox="0 0 95.376819 67.438041"
   xml:space="preserve"
   id="svg5876"
   sodipodi:docname="DRV8833_breadboard.svg"
   inkscape:version="1.2.2 (732a01da63, 2022-12-09)"
   xmlns:inkscape="http://www.inkscape.org/namespaces/inkscape"
   xmlns:sodipodi="http://sodipodi.sourceforge.net/DTD/sodipodi-0.dtd"
   xmlns="http://www.w3.org/2000/svg"
   xmlns:svg="http://www.w3.org/2000/svg"><defs
   id="defs5880"><rect
     x="256.62485"
     y="534.9881"
     width="12.597136"
     height="15.71855"
     id="rect9945" /><rect
     x="256.62485"
     y="534.9881"
     width="12.597136"
     height="15.71855"
     id="rect9945-4" /><rect
     x="256.62485"
     y="534.9881"
     width="12.597136"
     height="15.71855"
     id="rect9945-4-4" /><rect
     x="256.62485"
     y="534.9881"
     width="12.597136"
     height="15.71855"
     id="rect9945-4-8" /><rect
     x="256.62485"
     y="534.9881"
     width="12.597136"
     height="15.71855"
     id="rect9945-4-0" /><rect
     x="256.62485"
     y="534.9881"
     width="12.597136"
     height="15.71855"
     id="rect9945-4-6" /><rect
     x="256.62485"
     y="534.9881"
     width="12.597136"
     height="15.71855"
     id="rect9945-4-2" /><rect
     x="256.62485"
     y="534.9881"
     width="12.597136"
     height="15.71855"
     id="rect9945-4-09" /><rect
     x="256.62485"
     y="534.9881"
     width="12.597136"
     height="15.71855"
     id="rect9945-4-47" /><rect
     x="256.62485"
     y="534.9881"
     width="12.597136"
     height="15.71855"
     id="rect9945-4-47-0" /><rect
     x="256.62485"
     y="534.9881"
     width="12.597136"
     height="15.71855"
     id="rect9945-4-47-2" /><rect
     x="256.62485"
     y="534.9881"
     width="12.597136"
     height="15.71855"
     id="rect9945-4-47-7" /><rect
     x="256.62485"
     y="534.9881"
     width="12.597136"
     height="15.71855"
     id="rect9945-4-66" /><rect
     x="256.62485"
     y="534.9881"
     width="12.597136"
     height="15.71855"
     id="rect9945-4-87" /><rect
     x="256.62485"
     y="534.9881"
     width="12.597136"
     height="15.71855"
     id="rect9945-4-7" /><rect
     x="256.62485"
     y="534.9881"
     width="12.597136"
     height="15.71855"
     id="rect9945-4-7-4" /><rect
     x="256.62485"
     y="534.9881"
     width="12.597136"
     height="15.71855"
     id="rect9945-4-7-4-4" /><rect
     x="256.62485"
     y="534.9881"
     width="12.597136"
     height="15.71855"
     id="rect9945-4-7-4-2" /><rect
     x="256.62485"
     y="534.9881"
     width="12.597136"
     height="15.71855"
     id="rect9945-4-7-4-2-0" /></defs><sodipodi:namedview
   id="namedview5878"
   pagecolor="#ffffff"
   bordercolor="#000000"
   borderopacity="0.25"
   inkscape:showpageshadow="2"
   inkscape:pageopacity="0.0"
   inkscape:pagecheckerboard="0"
   inkscape:deskcolor="#d1d1d1"
   showgrid="false"
   inkscape:zoom="8.9702929"
   inkscape:cx="54.178833"
   inkscape:cy="28.817342"
   inkscape:window-width="1920"
   inkscape:window-height="1129"
   inkscape:window-x="-8"
   inkscape:window-y="-8"
   inkscape:window-maximized="1"
   inkscape:current-layer="svg5876" />


<path
   id="rect6227"
   style="fill:#1153ad;fill-opacity:1;stroke:#8c8c8c;stroke-width:0.817876;stroke-linecap:square;paint-order:stroke fill markers"
   d="m 9.3731066,0.40893799 c -4.9664307,0 -8.96416861,3.99772431 -8.96416861,8.96415521 V 58.062288 c 0,4.96643 3.99773791,8.966813 8.96416861,8.966813 H 86.003732 c 4.966431,0 8.964155,-4.000383 8.964155,-8.966813 V 9.3730932 c 0,-4.9664309 -3.997724,-8.96415521 -8.964155,-8.96415521 z M 24.500613,6.8944372 a 2.3553823,2.3553823 0 0 1 2.356192,2.353521 2.3553823,2.3553823 0 0 1 -2.356192,2.3561938 2.3553823,2.3553823 0 0 1 -2.35352,-2.3561938 2.3553823,2.3553823 0 0 1 2.35352,-2.353521 z m -9.344876,0.074563 a 2.3553823,2.3553823 0 0 1 2.356192,2.356179 2.3553823,2.3553823 0 0 1 -2.356192,2.3561928 2.3553823,2.3553823 0 0 1 -2.356179,-2.3561928 2.3553823,2.3553823 0 0 1 2.356179,-2.356179 z m 28.037287,0.077153 a 2.3553823,2.3553823 0 0 1 2.356192,2.353521 2.3553823,2.3553823 0 0 1 -2.356192,2.3561938 2.3553823,2.3553823 0 0 1 -2.356179,-2.3561938 2.3553823,2.3553823 0 0 1 2.356179,-2.353521 z m 37.382163,0 a 2.3553823,2.3553823 0 0 1 2.356193,2.35352 2.3553823,2.3553823 0 0 1 -2.356193,2.3561928 2.3553823,2.3553823 0 0 1 -2.356192,-2.3561928 2.3553823,2.3553823 0 0 1 2.356192,-2.35352 z m -18.386238,0.151757 a 2.3553823,2.3553823 0 0 1 2.35352,2.353521 2.3553823,2.3553823 0 0 1 -2.35352,2.3561788 2.3553823,2.3553823 0 0 1 -2.356192,-2.3561788 2.3553823,2.3553823 0 0 1 2.356192,-2.353521 z m 9.267669,0 a 2.3553823,2.3553823 0 0 1 2.356179,2.353521 2.3553823,2.3553823 0 0 1 -2.356179,2.3561788 2.3553823,2.3553823 0 0 1 -2.353534,-2.3561788 2.3553823,2.3553823 0 0 1 2.353534,-2.353521 z M 34.074454,7.3496535 a 2.3553823,2.3553823 0 0 1 2.356193,2.3561921 2.3553823,2.3553823 0 0 1 -2.356193,2.3535224 2.3553823,2.3553823 0 0 1 -2.353521,-2.3535224 2.3553823,2.3553823 0 0 1 2.353521,-2.3561921 z m 18.388897,0 A 2.3553823,2.3553823 0 0 1 54.816885,9.7058456 2.3553823,2.3553823 0 0 1 52.463351,12.059368 2.3553823,2.3553823 0 0 1 50.107173,9.7058456 2.3553823,2.3553823 0 0 1 52.463351,7.3496535 Z M 80.42343,25.735907 a 2.3553823,2.3553823 0 0 1 2.356193,2.356179 2.3553823,2.3553823 0 0 1 -2.356193,2.356192 2.3553823,2.3553823 0 0 1 -2.356178,-2.356192 2.3553823,2.3553823 0 0 1 2.356178,-2.356179 z m -0.151756,13.373012 a 2.3553823,2.3553823 0 0 1 2.356193,2.356192 2.3553823,2.3553823 0 0 1 -2.356193,2.353522 2.3553823,2.3553823 0 0 1 -2.356179,-2.353522 2.3553823,2.3553823 0 0 1 2.356179,-2.356192 z m -69.51149,10.17021 a 7.0918352,6.8769311 0 0 1 7.092527,6.876866 7.0918352,6.8769311 0 0 1 -7.092527,6.876867 7.0918352,6.8769311 0 0 1 -7.0925137,-6.876867 7.0918352,6.8769311 0 0 1 7.0925137,-6.876866 z m 74.572644,0 a 7.0918352,6.8769311 0 0 1 7.092514,6.876866 7.0918352,6.8769311 0 0 1 -7.092514,6.876867 7.0918352,6.8769311 0 0 1 -7.092527,-6.876867 7.0918352,6.8769311 0 0 1 7.092527,-6.876866 z M 43.488551,53.54423 a 2.3553823,2.3553823 0 0 1 2.35352,2.356179 2.3553823,2.3553823 0 0 1 -2.35352,2.356192 2.3553823,2.3553823 0 0 1 -2.356193,-2.356192 2.3553823,2.3553823 0 0 1 2.356193,-2.356179 z m 8.9748,0 a 2.3553823,2.3553823 0 0 1 2.353534,2.356179 2.3553823,2.3553823 0 0 1 -2.353534,2.356192 2.3553823,2.3553823 0 0 1 -2.356178,-2.356192 2.3553823,2.3553823 0 0 1 2.356178,-2.356179 z m -19.147668,0.151744 a 2.3553823,2.3553823 0 0 1 2.356178,2.356192 2.3553823,2.3553823 0 0 1 -2.356178,2.356192 2.3553823,2.3553823 0 0 1 -2.356192,-2.356192 2.3553823,2.3553823 0 0 1 2.356192,-2.356192 z m 28.415337,0 a 2.3553823,2.3553823 0 0 1 2.356193,2.356192 2.3553823,2.3553823 0 0 1 -2.356193,2.356192 2.3553823,2.3553823 0 0 1 -2.353521,-2.356192 2.3553823,2.3553823 0 0 1 2.353521,-2.356192 z m 9.270327,0 a 2.3553823,2.3553823 0 0 1 2.356192,2.356192 2.3553823,2.3553823 0 0 1 -2.356192,2.356192 2.3553823,2.3553823 0 0 1 -2.356179,-2.356192 2.3553823,2.3553823 0 0 1 2.356179,-2.356192 z m -46.65249,0.154428 a 2.3553823,2.3553823 0 0 1 2.356192,2.353521 2.3553823,2.3553823 0 0 1 -2.356192,2.356179 2.3553823,2.3553823 0 0 1 -2.353522,-2.356179 2.3553823,2.3553823 0 0 1 2.353522,-2.353521 z" /><path
   id="path12045"
   style="fill:none;fill-opacity:1;stroke:#9a916c;stroke-width:2.72625;stroke-linecap:square;stroke-dasharray:none;stroke-opacity:1;paint-order:stroke fill markers"
   d="m 24.500613,6.8944372 a 2.3553823,2.3553823 0 0 0 -2.35352,2.353521 2.3553823,2.3553823 0 0 0 2.35352,2.3561938 2.3553823,2.3553823 0 0 0 2.356192,-2.3561938 2.3553823,2.3553823 0 0 0 -2.356192,-2.353521 z m -9.344876,0.074563 a 2.3553823,2.3553823 0 0 0 -2.356179,2.356179 2.3553823,2.3553823 0 0 0 2.356179,2.3561928 2.3553823,2.3553823 0 0 0 2.356192,-2.3561928 2.3553823,2.3553823 0 0 0 -2.356192,-2.356179 z m 28.037287,0.077153 a 2.3553823,2.3553823 0 0 0 -2.356179,2.353521 2.3553823,2.3553823 0 0 0 2.356179,2.3561938 2.3553823,2.3553823 0 0 0 2.356192,-2.3561938 2.3553823,2.3553823 0 0 0 -2.356192,-2.353521 z m 37.382163,0 a 2.3553823,2.3553823 0 0 0 -2.356192,2.35352 2.3553823,2.3553823 0 0 0 2.356192,2.3561928 2.3553823,2.3553823 0 0 0 2.356193,-2.3561928 2.3553823,2.3553823 0 0 0 -2.356193,-2.35352 z m -18.386238,0.151757 a 2.3553823,2.3553823 0 0 0 -2.356192,2.353521 2.3553823,2.3553823 0 0 0 2.356192,2.3561788 2.3553823,2.3553823 0 0 0 2.35352,-2.3561788 2.3553823,2.3553823 0 0 0 -2.35352,-2.353521 z m 9.267669,0 a 2.3553823,2.3553823 0 0 0 -2.353534,2.353521 2.3553823,2.3553823 0 0 0 2.353534,2.3561788 2.3553823,2.3553823 0 0 0 2.356179,-2.3561788 2.3553823,2.3553823 0 0 0 -2.356179,-2.353521 z M 34.074454,7.3496535 a 2.3553823,2.3553823 0 0 0 -2.353521,2.3561921 2.3553823,2.3553823 0 0 0 2.353521,2.3535224 2.3553823,2.3553823 0 0 0 2.356193,-2.3535224 2.3553823,2.3553823 0 0 0 -2.356193,-2.3561921 z m 18.388897,0 A 2.3553823,2.3553823 0 0 0 50.107173,9.7058456 2.3553823,2.3553823 0 0 0 52.463351,12.059368 2.3553823,2.3553823 0 0 0 54.816885,9.7058456 2.3553823,2.3553823 0 0 0 52.463351,7.3496535 Z M 80.42343,25.735907 a 2.3553823,2.3553823 0 0 0 -2.356178,2.356179 2.3553823,2.3553823 0 0 0 2.356178,2.356192 2.3553823,2.3553823 0 0 0 2.356193,-2.356192 2.3553823,2.3553823 0 0 0 -2.356193,-2.356179 z m -0.151756,13.373012 a 2.3553823,2.3553823 0 0 0 -2.356179,2.356192 2.3553823,2.3553823 0 0 0 2.356179,2.353522 2.3553823,2.3553823 0 0 0 2.356193,-2.353522 2.3553823,2.3553823 0 0 0 -2.356193,-2.356192 z M 43.488551,53.54423 a 2.3553823,2.3553823 0 0 0 -2.356193,2.356179 2.3553823,2.3553823 0 0 0 2.356193,2.356192 2.3553823,2.3553823 0 0 0 2.35352,-2.356192 2.3553823,2.3553823 0 0 0 -2.35352,-2.356179 z m 8.9748,0 a 2.3553823,2.3553823 0 0 0 -2.356178,2.356179 2.3553823,2.3553823 0 0 0 2.356178,2.356192 2.3553823,2.3553823 0 0 0 2.353534,-2.356192 2.3553823,2.3553823 0 0 0 -2.353534,-2.356179 z m -19.147668,0.151744 a 2.3553823,2.3553823 0 0 0 -2.356192,2.356192 2.3553823,2.3553823 0 0 0 2.356192,2.356192 2.3553823,2.3553823 0 0 0 2.356178,-2.356192 2.3553823,2.3553823 0 0 0 -2.356178,-2.356192 z m 28.415337,0 a 2.3553823,2.3553823 0 0 0 -2.353521,2.356192 2.3553823,2.3553823 0 0 0 2.353521,2.356192 2.3553823,2.3553823 0 0 0 2.356193,-2.356192 2.3553823,2.3553823 0 0 0 -2.356193,-2.356192 z m 9.270327,0 a 2.3553823,2.3553823 0 0 0 -2.356179,2.356192 2.3553823,2.3553823 0 0 0 2.356179,2.356192 2.3553823,2.3553823 0 0 0 2.356192,-2.356192 2.3553823,2.3553823 0 0 0 -2.356192,-2.356192 z m -46.65249,0.154428 a 2.3553823,2.3553823 0 0 0 -2.353522,2.353521 2.3553823,2.3553823 0 0 0 2.353522,2.356179 2.3553823,2.3553823 0 0 0 2.356192,-2.356179 2.3553823,2.3553823 0 0 0 -2.356192,-2.353521 z" /><rect
   style="fill:#000000;fill-opacity:1;stroke:#8c8c8c;stroke-width:0.817876;stroke-linecap:square;paint-order:stroke fill markers"
   id="rect9733"
   width="17.931297"
   height="16.715616"
   x="30.884115"
   y="26.268328"
   rx="0" /><text
   xml:space="preserve"
   id="text9943"
   style="font-size:2.66667px;font-family:DroidSans;-inkscape-font-specification:'DroidSans, Normal';text-align:center;white-space:pre;shape-inside:url(#rect9945);shape-padding:0.780354;fill:#ffffff;fill-opacity:1;stroke:none;stroke-width:0.6;stroke-linecap:square;paint-order:stroke fill markers"
   transform="matrix(1.363127,0,0,1.363127,-318.95282,-702.76584)"
   x="5.1842513"
   y="0"><tspan
     x="257.65493"
     y="538.13038"
     id="tspan18204"><tspan
       style="text-align:end;text-anchor:end"
       id="tspan18202">DRV8833
</tspan></tspan><tspan
     x="263.95963"
     y="541.46369"
     id="tspan18208"><tspan
       style="text-align:end;text-anchor:end"
       id="tspan18206">55K
</tspan></tspan><tspan
     x="261.97135"
     y="544.797"
     id="tspan18212"><tspan
       style="text-align:end;text-anchor:end"
       id="tspan18210">CFNC</tspan></tspan></text><text
   xml:space="preserve"
   id="text9943-7"
   style="font-size:2.66667px;font-family:DroidSans;-inkscape-font-specification:'DroidSans, Normal';text-align:center;white-space:pre;shape-inside:url(#rect9945-4);shape-padding:0.780354;fill:#ffffff;fill-opacity:1;stroke:none;stroke-width:0.6;stroke-linecap:square;paint-order:stroke fill markers"
   transform="matrix(2.2363741,0,0,2.2376214,-571.58938,-1198.5628)"
   x="5.1842513"
   y="0"><tspan
     x="259.9541"
     y="538.13038"
     id="tspan18214">AIN1</tspan></text><text
   xml:space="preserve"
   id="text9943-7-6"
   style="font-size:2.66667px;font-family:DroidSans;-inkscape-font-specification:'DroidSans, Normal';text-align:center;white-space:pre;shape-inside:url(#rect9945-4-66);shape-padding:0.780354;fill:#ffffff;fill-opacity:1;stroke:none;stroke-width:0.6;stroke-linecap:square;paint-order:stroke fill markers"
   transform="matrix(2.2363741,0,0,2.2376214,-563.0869,-1185.3786)"
   x="5.1842513"
   y="0"><tspan
     x="259.9541"
     y="538.13038"
     id="tspan18216">AIN2</tspan></text><text
   xml:space="preserve"
   id="text9943-7-35"
   style="font-size:2.66667px;font-family:DroidSans;-inkscape-font-specification:'DroidSans, Normal';text-align:center;white-space:pre;shape-inside:url(#rect9945-4-47);shape-padding:0.780354;fill:#ffffff;fill-opacity:1;stroke:none;stroke-width:0.6;stroke-linecap:square;paint-order:stroke fill markers"
   transform="matrix(2.2363741,0,0,2.2376214,-560.30162,-1140.0145)"
   x="5.1842513"
   y="0"><tspan
     x="259.51269"
     y="538.13038"
     id="tspan18218">AOUT</tspan></text><text
   xml:space="preserve"
   id="text9943-7-35-5"
   style="font-size:2.66667px;font-family:DroidSans;-inkscape-font-specification:'DroidSans, Normal';text-align:center;white-space:pre;shape-inside:url(#rect9945-4-47-0);shape-padding:0.780354;fill:#ffffff;fill-opacity:1;stroke:none;stroke-width:0.6;stroke-linecap:square;paint-order:stroke fill markers"
   transform="matrix(2.2363741,0,0,2.2376214,-540.05964,-1140.0145)"
   x="5.1842513"
   y="0"><tspan
     x="259.48209"
     y="538.13038"
     id="tspan18220">BOUT</tspan></text><text
   xml:space="preserve"
   id="text9943-7-35-2"
   style="font-size:2.66667px;font-family:DroidSans;-inkscape-font-specification:'DroidSans, Normal';text-align:center;white-space:pre;shape-inside:url(#rect9945-4-47-2);shape-padding:0.780354;display:inline;fill:#ffffff;fill-opacity:1;stroke:none;stroke-width:0.6;stroke-linecap:square;paint-order:stroke fill markers"
   transform="matrix(2.2363741,0,0,2.2376214,-525.92735,-1140.0203)"
   x="5.1842513"
   y="0"><tspan
     x="261.42025"
     y="538.13038"
     id="tspan18222">AS</tspan></text><text
   xml:space="preserve"
   id="text9943-7-35-4"
   style="font-size:2.66667px;font-family:DroidSans;-inkscape-font-specification:'DroidSans, Normal';text-align:center;white-space:pre;shape-inside:url(#rect9945-4-47-7);shape-padding:0.780354;display:inline;fill:#ffffff;fill-opacity:1;stroke:none;stroke-width:0.6;stroke-linecap:square;paint-order:stroke fill markers"
   transform="matrix(2.2363741,0,0,2.2376214,-515.13817,-1140.0203)"
   x="5.1842513"
   y="0"><tspan
     x="261.40267"
     y="538.13038"
     id="tspan18224">BS</tspan></text><text
   xml:space="preserve"
   id="text9943-7-2"
   style="font-size:2.66667px;font-family:DroidSans;-inkscape-font-specification:'DroidSans, Normal';text-align:center;white-space:pre;shape-inside:url(#rect9945-4-4);shape-padding:0.780354;fill:#ffffff;fill-opacity:1;stroke:none;stroke-width:0.6;stroke-linecap:square;paint-order:stroke fill markers"
   transform="matrix(2.2363741,0,0,2.2376214,-552.73016,-1198.5191)"
   x="5.1842513"
   y="0"><tspan
     x="260.80761"
     y="538.13038"
     id="tspan18226">SLP</tspan></text><text
   xml:space="preserve"
   id="text9943-7-7"
   style="font-size:2.66667px;font-family:DroidSans;-inkscape-font-specification:'DroidSans, Normal';text-align:center;white-space:pre;shape-inside:url(#rect9945-4-8);shape-padding:0.780354;display:inline;fill:#ffffff;fill-opacity:1;stroke:none;stroke-width:0.6;stroke-linecap:square;paint-order:stroke fill markers"
   transform="matrix(2.2363741,0,0,2.2376214,-532.94931,-1198.5804)"
   x="5.1842513"
   y="0"><tspan
     x="259.94954"
     y="538.13038"
     id="tspan18228">BIN1</tspan></text><text
   xml:space="preserve"
   id="text9943-7-3"
   style="font-size:2.66667px;font-family:DroidSans;-inkscape-font-specification:'DroidSans, Normal';text-align:center;white-space:pre;shape-inside:url(#rect9945-4-0);shape-padding:0.780354;display:inline;fill:#ffffff;fill-opacity:1;stroke:none;stroke-width:0.6;stroke-linecap:square;paint-order:stroke fill markers"
   transform="matrix(2.2363741,0,0,2.2376214,-515.95091,-1198.5191)"
   x="5.1842513"
   y="0"><tspan
     x="260.11881"
     y="538.13038"
     id="tspan18230">GND</tspan></text><text
   xml:space="preserve"
   id="text9943-7-70"
   style="font-size:2.66667px;font-family:DroidSans;-inkscape-font-specification:'DroidSans, Normal';text-align:center;white-space:pre;shape-inside:url(#rect9945-4-87);shape-padding:0.780354;display:inline;fill:#ffffff;fill-opacity:1;stroke:none;stroke-width:0.6;stroke-linecap:square;paint-order:stroke fill markers"
   transform="matrix(2.2363741,0,0,2.2376214,-543.96047,-1185.3786)"
   x="5.1842513"
   y="0"><tspan
     x="259.94954"
     y="538.13038"
     id="tspan18232">BIN2</tspan></text><text
   xml:space="preserve"
   id="text9943-7-1"
   style="font-size:2.66667px;font-family:DroidSans;-inkscape-font-specification:'DroidSans, Normal';text-align:center;white-space:pre;shape-inside:url(#rect9945-4-7);shape-padding:0.780354;display:inline;fill:#ffffff;fill-opacity:1;stroke:none;stroke-width:0.6;stroke-linecap:square;paint-order:stroke fill markers"
   transform="matrix(2.2363741,0,0,2.2376214,-525.47863,-1185.3786)"
   x="5.1842513"
   y="0"><tspan
     x="261.00097"
     y="538.13038"
     id="tspan18234">FLT</tspan></text><text
   xml:space="preserve"
   id="text9943-7-1-9"
   style="font-size:2.66667px;font-family:DroidSans;-inkscape-font-specification:'DroidSans, Normal';text-align:center;white-space:pre;shape-inside:url(#rect9945-4-7-4);shape-padding:0.780354;display:inline;fill:#ffffff;fill-opacity:1;stroke:none;stroke-width:0.6;stroke-linecap:square;paint-order:stroke fill markers"
   transform="matrix(2.2363741,0,0,2.2376214,-515.38492,-1176.1465)"
   x="5.1842513"
   y="0"><tspan
     x="262.18848"
     y="538.13038"
     id="tspan18236">+</tspan></text><text
   xml:space="preserve"
   id="text9943-7-1-9-8"
   style="font-size:2.66667px;font-family:DroidSans;-inkscape-font-specification:'DroidSans, Normal';text-align:center;white-space:pre;shape-inside:url(#rect9945-4-7-4-4);shape-padding:0.780354;display:inline;fill:#ffffff;fill-opacity:1;stroke:none;stroke-width:0.6;stroke-linecap:square;paint-order:stroke fill markers"
   transform="matrix(2.2363741,0,0,2.2376214,-515.55556,-1155.9659)"
   x="5.1842513"
   y="0"><tspan
     x="262.49381"
     y="538.13038"
     id="tspan18238">-</tspan></text><text
   xml:space="preserve"
   id="text9943-7-1-9-2"
   style="font-size:2.66667px;font-family:DroidSans;-inkscape-font-specification:'DroidSans, Normal';text-align:center;white-space:pre;shape-inside:url(#rect9945-4-7-4-2);shape-padding:0.780354;display:inline;fill:#ffffff;fill-opacity:1;stroke:none;stroke-width:0.6;stroke-linecap:square;paint-order:stroke fill markers"
   transform="matrix(0,2.2363741,-2.2376214,0,1289.5211,-553.62096)"
   x="5.1842513"
   y="0"><tspan
     x="258.48274"
     y="538.13038"
     id="tspan18240">VMotor</tspan></text><text
   xml:space="preserve"
   id="text9943-7-1-9-2-1"
   style="font-size:2.66667px;font-family:DroidSans;-inkscape-font-specification:'DroidSans, Normal';text-align:center;white-space:pre;shape-inside:url(#rect9945-4-7-4-2-0);shape-padding:0.780354;display:inline;fill:#ffffff;fill-opacity:1;stroke:none;stroke-width:0.6;stroke-linecap:square;paint-order:stroke fill markers"
   transform="matrix(0,2.2363741,-2.2376214,0,1290.3725,-578.41117)"
   x="5.1842513"
   y="0"><tspan
     x="261.00553"
     y="538.13038"
     id="tspan18242">VM</tspan></text><rect
   style="fill:#dcdcdc;fill-opacity:1;stroke:none;stroke-width:2.72625;stroke-linecap:square;stroke-dasharray:none;stroke-opacity:1;paint-order:stroke fill markers"
   id="rect14635"
   width="5.1576977"
   height="11.389885"
   x="7.9670634"
   y="27.789864" /><rect
   style="fill:#dcdcdc;fill-opacity:1;stroke:none;stroke-width:2.72625;stroke-linecap:square;stroke-dasharray:none;stroke-opacity:1;paint-order:stroke fill markers"
   id="rect14635-0"
   width="5.1576977"
   height="11.389885"
   x="13.662033"
   y="27.789864" /><rect
   style="fill:#dcdcdc;fill-opacity:1;stroke:none;stroke-width:2.72625;stroke-linecap:square;stroke-dasharray:none;stroke-opacity:1;paint-order:stroke fill markers"
   id="rect14635-00"
   width="5.1576977"
   height="11.389885"
   x="22.688007"
   y="21.3428" /><rect
   style="fill:#000000;fill-opacity:1;stroke:none;stroke-width:2.72625;stroke-linecap:square;stroke-dasharray:none;stroke-opacity:1;paint-order:stroke fill markers"
   id="rect14635-6"
   width="5.1576977"
   height="11.389885"
   x="56.320488"
   y="33.699715" /><rect
   style="fill:#dcdcdc;fill-opacity:1;stroke:none;stroke-width:2.72625;stroke-linecap:square;stroke-dasharray:none;stroke-opacity:1;paint-order:stroke fill markers"
   id="rect16973"
   width="9.6706839"
   height="5.1576986"
   x="53.956566"
   y="27.145157" /><rect
   style="fill:#dcdcdc;fill-opacity:1;stroke:none;stroke-width:2.72625;stroke-linecap:square;stroke-dasharray:none;stroke-opacity:1;paint-order:stroke fill markers"
   id="rect16973-1"
   width="9.6706839"
   height="5.1576986"
   x="54.063972"
   y="21.235306" /></svg>
